# 3ds Max Wavefront OBJ Exporter v0.97b - (c)2007 guruware
# File Created: 11.08.2014 15:28:24

mtllib 0.mtl

#
# object 02___Default
#

v  -425.3825 0.5219 37.7213
v  -425.3825 0.5219 -39.5858
v  492.5849 0.5219 -39.5858
v  492.5849 0.5219 37.7213
v  -425.3825 93.6185 37.7213
v  492.5849 93.6185 37.7213
v  492.5849 93.6185 -39.5858
v  -425.3825 93.6185 -39.5858
# 8 vertices

vn 0.0000 -1.0000 -0.0000
vn 0.0000 1.0000 -0.0000
vn 0.0000 0.0000 1.0000
vn 1.0000 0.0000 -0.0000
vn 0.0000 0.0000 -1.0000
vn -1.0000 0.0000 -0.0000
# 6 vertex normals

vt 1.0000 1.0000 0.0000
vt 1.0000 2.0000 0.0000
vt 0.0000 2.0000 0.0000
vt 0.0000 1.0000 0.0000
# 4 texture coords

g 02___Default
usemtl 02___Default
s 1
f 1/1/1 2/2/1 3/3/1 
f 3/3/1 4/4/1 1/1/1 
f 5/4/2 6/1/2 7/2/2 
f 7/2/2 8/3/2 5/4/2 
f 1/4/3 4/1/3 6/2/3 
f 6/2/3 5/3/3 1/4/3 
f 4/4/4 3/1/4 7/2/4 
f 7/2/4 6/3/4 4/4/4 
f 3/4/5 2/1/5 8/2/5 
f 8/2/5 7/3/5 3/4/5 
f 2/4/6 1/1/6 5/2/6 
f 5/2/6 8/3/6 2/4/6 
# 12 faces

